<?xml version="1.0" encoding="UTF-8" standalone="no"?>
<!-- Created with Inkscape (http://www.inkscape.org/) -->

<svg
   version="1.1"
   id="svg62"
   width="300"
   height="300"
   viewBox="0 0 1066.6667 1066.6667"
   sodipodi:docname="ct-logo.png"
   xmlns:inkscape="http://www.inkscape.org/namespaces/inkscape"
   xmlns:sodipodi="http://sodipodi.sourceforge.net/DTD/sodipodi-0.dtd"
   xmlns="http://www.w3.org/2000/svg"
   xmlns:svg="http://www.w3.org/2000/svg">
  <defs
     id="defs66" />
  <sodipodi:namedview
     id="namedview64"
     pagecolor="#ffffff"
     bordercolor="#000000"
     borderopacity="0.25"
     inkscape:showpageshadow="2"
     inkscape:pageopacity="0.0"
     inkscape:pagecheckerboard="0"
     inkscape:deskcolor="#d1d1d1"
     showgrid="false" />
  <g
     inkscape:groupmode="layer"
     inkscape:label="Image"
     id="g68">
    <path
       style="fill:#000000;stroke-width:1.62195"
       d="m 384.18453,835.68874 c -26.9456,-3.041 -47.64109,-10.4148 -69.19243,-24.6535 -23.24141,-15.35512 -43.4433,-39.82411 -56.86756,-68.87914 -8.66004,-18.74355 -11.84483,-30.34991 -14.56559,-53.0818 -7.59761,-63.47758 14.44797,-129.1914 57.92738,-172.67079 28.93111,-28.93112 59.98555,-44.03891 100.34988,-48.81954 12.92376,-1.53065 15.3967,-2.58262 11.36935,-4.83645 -7.02996,-3.93417 -18.90904,-15.38772 -26.69855,-25.74217 -18.79537,-24.98437 -25.59891,-48.0799 -22.15237,-75.19925 4.3573,-34.28595 20.23639,-62.8476 46.57866,-83.78082 31.47613,-25.01294 72.6213,-37.41936 124.09908,-37.41936 83.6039,0 149.44655,40.0915 168.69266,102.71676 6.31845,20.55973 7.1265,36.42361 4.08046,80.10946 -1.54132,22.10533 -2.91129,43.11101 -3.04441,46.67929 l -0.24201,6.48779 60.28417,0.81098 c 33.15628,0.44603 60.78348,1.3111 61.39378,1.92236 0.6102,0.61127 -0.016,4.62559 -1.3909,8.92071 -1.3751,4.29513 -4.035,13.10092 -5.9107,19.56844 l -3.4104,11.7591 h -56.53607 -56.53615 l -0.95005,7.70426 c -0.52255,4.23734 -1.40426,52.59164 -1.95939,107.454 -0.88883,87.84243 -0.69683,101.39547 1.60834,113.5363 4.95435,26.09327 16.77175,42.54341 33.8871,47.17192 11.99163,3.24284 39.92582,-0.49608 57.49982,-7.69606 5.5693,-2.28171 11.1929,-3.73927 12.4968,-3.23882 1.3039,0.50032 3.8744,3.85715 5.7122,7.45958 4.2566,8.34365 2.9599,10.67735 -11.3047,20.34565 -19.7685,13.3986 -38.84206,20.2466 -65.86675,23.6482 -19.76813,2.4883 -33.7701,0.2975 -50.91338,-7.9662 -16.19535,-7.8066 -32.94267,-24.2836 -40.67788,-40.0213 l -5.54761,-11.28681 0.14482,-33.26595 c 0.0797,-18.29629 0.91998,-75.5988 1.86727,-127.3389 0.94731,-51.74012 1.38642,-94.62035 0.97585,-95.28939 -0.41059,-0.66907 -13.47629,-1.21648 -29.03489,-1.21648 -26.12576,0 -28.53635,-0.24798 -31.53224,-3.24387 -1.78415,-1.78415 -3.24391,-4.29803 -3.24391,-5.58638 0,-4.05409 6.97291,-10.0665 15.97657,-13.77586 29.90106,-12.31866 53.53741,-34.42727 61.80687,-57.8119 3.98073,-11.25685 8.18239,-37.23886 8.17358,-50.54353 -0.0146,-21.11685 -6.32694,-46.12642 -16.37197,-64.85935 -18.13127,-33.81287 -45.82481,-50.91393 -90.18717,-55.69155 -50.66535,-5.45642 -99.81921,13.3381 -128.7262,49.21987 -15.53118,19.27871 -20.97605,35.61002 -20.97605,62.91575 0,22.332 4.10673,39.33319 13.09611,54.21566 6.87736,11.38587 28.36245,33.25886 32.66903,33.25886 7.52959,0 30.64782,7.27144 42.18225,13.26767 15.83762,8.23331 31.52059,23.42903 38.41066,37.21726 5.85999,11.72688 6.25509,18.22346 1.74485,28.68981 -4.62686,10.73696 -11.66086,15.12342 -25.88323,16.14102 -9.8356,0.70374 -12.39693,0.26579 -19.85664,-3.39515 -11.56111,-5.67374 -19.05273,-13.35561 -28.13787,-28.85241 -9.82657,-16.76144 -21.5094,-29.50906 -30.30427,-33.06614 -8.87227,-3.58841 -30.18108,-4.91045 -42.36402,-2.62834 -20.50623,3.84125 -43.20002,18.7356 -56.82333,37.29426 -9.02406,12.29326 -16.70419,28.99083 -21.3581,46.4354 -3.83455,14.3733 -4.33566,19.26568 -4.40233,42.98161 -0.0952,33.87486 4.08407,53.52276 18.549,87.20318 23.20269,54.02563 53.29515,79.54873 99.827,84.66906 24.60038,2.70699 47.32337,0.11678 66.18117,-7.5423 15.30806,-6.21783 20.04438,-9.18435 35.20356,-22.04933 7.72066,-6.5522 9.77268,-7.57368 12.39512,-6.17018 4.52722,2.42289 11.60238,11.2629 11.60238,14.49646 0,3.95548 -18.18263,21.14626 -32.43893,30.66955 -40.53101,27.0746 -84.32791,37.9587 -131.37772,32.6488 z"
       id="path230"
       inkscape:export-filename="ct-crop.svg"
       inkscape:export-xdpi="28.75683"
       inkscape:export-ydpi="28.75683" />
  </g>
</svg>
