<?xml version="1.0" encoding="UTF-8" standalone="no"?>
<!-- Created with Inkscape (http://www.inkscape.org/) -->

<svg
   version="1.1"
   id="svg46"
   width="466.66666"
   height="192"
   viewBox="0 0 466.66666 192"
   sodipodi:docname="logo-univ-toulouse.png"
   inkscape:export-filename="logo-univ-toulouse.svg"
   inkscape:export-xdpi="96"
   inkscape:export-ydpi="96"
   xmlns:inkscape="http://www.inkscape.org/namespaces/inkscape"
   xmlns:sodipodi="http://sodipodi.sourceforge.net/DTD/sodipodi-0.dtd"
   xmlns="http://www.w3.org/2000/svg"
   xmlns:svg="http://www.w3.org/2000/svg">
  <defs
     id="defs50" />
  <sodipodi:namedview
     id="namedview48"
     pagecolor="#ffffff"
     bordercolor="#000000"
     borderopacity="0.25"
     inkscape:showpageshadow="2"
     inkscape:pageopacity="0.0"
     inkscape:pagecheckerboard="0"
     inkscape:deskcolor="#d1d1d1"
     showgrid="false" />
  <g
     inkscape:groupmode="layer"
     inkscape:label="Image"
     id="g52">
    <path
       style="fill:#000000;stroke-width:1.33333"
       d="m 88.190041,158.16154 c -9.522906,-2.5474 -15.685754,-6.14388 -21.133697,-12.33307 -9.24951,-10.508 -10.626964,-20.61595 -9.824653,-72.094691 l 0.605504,-38.85101 4.843089,-0.80098 c 2.6637,-0.44054 10.327447,-0.80759 17.030549,-0.81566 l 12.187459,-0.0147 0.613221,5 c 0.337272,2.75 0.317459,20.63762 -0.04403,39.75026 -0.782142,41.353441 0.479037,53.438561 6.617913,63.415501 4.685624,7.6151 9.178194,10.33748 18.843004,11.41837 9.84313,1.10083 11.57715,2.34317 6.09336,4.36561 -6.27156,2.31298 -28.543719,2.9099 -35.831723,0.96034 z m 47.012389,-8.57675 c 6.92104,-7.22727 9.3136,-15.36525 10.28523,-34.9838 0.49816,-10.05852 1.62408,-19.372801 2.54909,-21.087551 1.57657,-2.92258 8.86151,-8.2464 11.29861,-8.257 0.62994,-0.003 0.87947,8.84501 0.55454,19.661681 -0.65311,21.74126 -2.52068,29.41515 -9.22243,37.89507 -3.66867,4.64205 -13.1906,10.43827 -17.14785,10.43827 -1.14114,0 -0.50855,-1.37834 1.68281,-3.66667 z m 90.98761,-48.08615 c -9.57457,-1.875954 -11.39304,-17.361911 -2.51381,-21.407561 7.83273,-3.56883 15.18048,0.21966 15.18048,7.82704 0,3.96598 -0.0632,4 -7.43109,4 -6.35778,0 -7.36687,0.33702 -6.98639,2.33333 0.58172,3.052127 6.02236,3.770877 8.89121,1.1746 1.4747,-1.33457 2.91638,-1.63022 4.17038,-0.85521 1.62944,1.00706 1.563,1.57512 -0.44358,3.792357 -2.53789,2.804354 -6.59,3.973474 -10.8672,3.135444 z m 7.33334,-14.750591 c 0,-2.52164 -4.17863,-4.70361 -6.36574,-3.32402 -4.06864,2.56643 -3.3875,4.49409 1.58796,4.49409 2.62778,0 4.77778,-0.52653 4.77778,-1.17007 z m 44.53288,13.963081 c -4.66534,-2.065094 -5.86622,-4.309281 -5.86622,-10.962671 0,-9.79613 10.68516,-14.46052 18.23987,-7.96223 3.04019,2.61506 3.69503,4.22606 3.57521,8.79543 -0.2404,9.168627 -7.58348,13.832371 -15.94886,10.129471 z m 8.72817,-5.372581 c 0.87316,-1.05209 1.39663,-3.90209 1.16325,-6.33333 -0.33062,-3.44448 -1.10285,-4.51662 -3.49769,-4.85612 -4.12169,-0.58429 -6.92661,1.97996 -6.92661,6.33228 0,6.095047 5.73668,9.103787 9.26105,4.85717 z m 13.52295,4.942701 c -2.58555,-2.093664 -2.87484,-3.435394 -2.51916,-11.683751 0.32408,-7.51549 0.84056,-9.4021 2.66933,-9.75068 1.90484,-0.36308 2.33133,0.89205 2.66667,7.84758 0.28764,5.96667 1.0198,8.66941 2.62073,9.67443 4.03861,2.535347 6.44509,-1.17879 6.44509,-9.9473 0,-6.94785 0.30247,-7.83674 2.66667,-7.83674 2.45752,0 2.66667,0.88889 2.66667,11.33333 0,10.444451 -0.20915,11.333341 -2.66667,11.333341 -1.61543,0 -2.66667,-0.88889 -2.66667,-2.254844 0,-2.04576 -0.15454,-2.05825 -1.66666,-0.13464 -2.70706,3.443704 -6.98242,4.037664 -10.216,1.419274 z m 37.63649,0.9609 c -3.90181,-1.572074 -5.75383,-5.372231 -5.75383,-11.806271 0,-4.16374 0.76574,-5.92654 3.51315,-8.08765 7.62091,-5.99461 17.82018,-1.07421 17.82018,8.59694 0,6.48255 -1.79058,9.406677 -6.83747,11.166041 -4.85842,1.69365 -4.86328,1.69373 -8.74203,0.13093 z m 8.64617,-5.590701 c 1.84119,-1.84118 2.08604,-7.56889 0.43491,-10.17343 -0.63856,-1.00729 -2.78981,-1.58331 -4.97959,-1.33333 -3.2821,0.37466 -3.91841,1.09734 -4.27962,4.86053 -0.66331,6.91034 4.59772,10.872817 8.8243,6.64623 z m 13.89668,4.857731 c -2.61532,-1.831844 -2.96335,-3.252644 -2.96335,-12.097761 0,-8.82519 0.27868,-9.96913 2.33334,-9.57811 1.85389,0.35282 2.41734,2.07861 2.7422,8.39909 0.49266,9.585667 3.08924,12.330477 7.49589,7.92382 1.397,-1.397 2.09524,-4.53992 2.09524,-9.4311 0,-6.26749 0.33981,-7.27093 2.33333,-6.89002 1.95824,0.37417 2.39559,2.21177 2.72059,11.4311 0.36295,10.295471 0.21643,10.985261 -2.33333,10.985261 -1.69438,0 -2.7283,-0.88015 -2.741,-2.333344 -0.012,-1.43953 -0.39566,-1.77136 -1,-0.86627 -0.86611,1.29711 -6.05002,4.532944 -7.26192,4.532944 -0.25171,0 -1.79116,-0.93402 -3.42099,-2.07561 z m 26.71505,1.13053 c -1.64356,-0.31386 -3.89841,-1.870054 -5.01081,-3.458224 -1.83704,-2.622747 -1.80767,-2.962927 0.32041,-3.709417 1.34086,-0.47034 2.94567,0.002 3.75218,1.10539 1.53477,2.098917 7.92649,1.836037 7.92649,-0.32601 0,-0.73333 -2.55311,-2.14124 -5.67356,-3.12868 -4.25403,-1.34615 -5.88893,-2.65345 -6.53433,-5.22496 -1.75086,-6.97595 9.7848,-11.27047 14.94822,-5.56496 2.10384,2.32473 2.19172,2.93054 0.57044,3.93255 -1.25893,0.77806 -2.71056,0.4659 -4.23066,-0.90977 -2.53538,-2.29449 -6.96279,-1.4189 -6.08847,1.20408 0.30071,0.90211 2.79545,2.17201 5.54389,2.82199 5.94879,1.40686 8.57328,5.63988 6.2214,10.034427 -0.83458,1.55943 -2.34724,2.835334 -3.36146,2.835334 -1.01422,0 -2.64311,0.21575 -3.61975,0.47945 -0.97665,0.2637 -3.12044,0.22266 -4.76399,-0.0912 z m 22.79418,0.0224 c -8.17943,-1.59994 -10.72227,-14.132951 -4.03459,-19.885451 7.0696,-6.08101 16.89535,-2.50932 16.89535,6.14151 0,3.9596 -0.0741,4 -7.33334,4 -5.5877,0 -7.33333,0.47004 -7.33333,1.9746 0,2.980447 6.32292,4.083117 9.08417,1.58422 2.71966,-2.46125 6.0535,-1.00433 4.85408,2.121277 -0.62637,1.63232 -8.44313,5.742924 -9.13721,4.804994 -0.0739,-0.0999 -1.42172,-0.43338 -2.99513,-0.74115 z m 7.52742,-14.914011 c 0,-2.7117 -3.7919,-4.36845 -6.58144,-2.87554 -4.16452,2.22878 -3.30461,4.04561 1.91478,4.04561 2.56666,0 4.66666,-0.52653 4.66666,-1.17007 z M 195.59898,98.288106 c -3.02275,-4.315577 -2.69543,-13.750157 0.59106,-17.036657 3.20348,-3.20348 6.38162,-3.38463 10.36999,-0.59106 2.91635,2.04269 2.96335,1.98983 2.96335,-3.33333 0,-4.52005 0.43822,-5.40894 2.66666,-5.40894 2.50506,0 2.66667,0.88889 2.66667,14.66667 0,13.777781 -0.16161,14.666671 -2.66667,14.666671 -1.59246,0 -2.66666,-0.88889 -2.66666,-2.206654 0,-2.05332 -0.16944,-2.05332 -2.43832,0 -3.48016,3.149504 -9.005,2.785534 -11.48608,-0.7567 z m 10.68832,-2.057067 c 2.41225,-1.65177 3.22508,-5.50159 1.89834,-8.99116 -2.26828,-5.96602 -9.32893,-3.43441 -9.32893,3.34491 0,5.28148 3.77459,8.149657 7.43059,5.64625 z m 51.23608,-6.31292 v -11.33333 h -4 c -3.11111,0 -4,-0.59259 -4,-2.66667 0,-2.45752 0.88889,-2.66667 11.33333,-2.66667 10.44444,0 11.33333,0.20915 11.33333,2.66667 0,2.07408 -0.88889,2.66667 -4,2.66667 h -4 v 11.33333 c 0,11.200001 -0.0392,11.333341 -3.33333,11.333341 -3.29412,0 -3.33333,-0.13334 -3.33333,-11.333341 z m 65.33333,-3.33333 c 0,-13.77778 0.16161,-14.66667 2.66667,-14.66667 2.50505,0 2.66666,0.88889 2.66666,14.66667 0,13.777781 -0.16161,14.666671 -2.66666,14.666671 -2.50506,0 -2.66667,-0.88889 -2.66667,-14.666671 z M 146.06487,72.739379 c -0.38948,-1.01497 -0.52065,-8.81615 -0.29149,-17.33595 l 0.41666,-15.49055 -7,0.003 c -6.11198,0.002 -7,-0.33572 -7,-2.66409 0,-2.55559 0.8889,-2.6667 21.33334,-2.6667 20.44444,0 21.33333,0.1111 21.33333,2.66666 0,2.34344 -0.88889,2.66667 -7.33333,2.66667 h -7.33334 v 13.4359 c 0,13.07242 -0.10546,13.54133 -3.89744,17.33333 -4.13305,4.13306 -9.05057,5.11968 -10.22773,2.05203 z m 52.06457,-13.42732 c -2.93238,-2.93237 -3.27273,-4.38833 -3.27273,-14 0,-9.83838 0.22097,-10.72727 2.66667,-10.72727 2.3959,0 2.66666,0.88889 2.66666,8.75432 0,10.87185 1.47444,13.91234 6.74658,13.91234 4.9754,0 6.58676,-3.60923 6.58676,-14.75346 0,-7.02431 0.29954,-7.9132 2.66666,-7.9132 2.4457,0 2.66667,0.88889 2.66667,10.72727 0,9.61167 -0.34035,11.06763 -3.27273,14 -2.40808,2.40808 -4.7138,3.27273 -8.72727,3.27273 -4.01347,0 -6.31919,-0.86465 -8.72727,-3.27273 z m 26.0606,-7.96284 c 0,-11.48794 1.12523,-13.77254 4.91618,-9.98159 1.0438,1.04379 1.70026,1.04379 2.34536,0 1.70392,-2.757 8.55177,-1.64061 10.77805,1.75711 3.00301,4.58319 2.24527,18.58638 -1.03959,19.21152 -1.9288,0.36707 -2.33649,-0.55534 -2.35153,-5.32037 -0.0241,-7.62363 -1.13105,-11.4085 -3.61552,-12.36187 -3.55073,-1.36255 -5.55991,1.90049 -5.96972,9.69526 -0.31193,5.93335 -0.89447,7.63768 -2.72989,7.98698 -2.07531,0.39495 -2.33334,-0.82 -2.33334,-10.98704 z m 24,-0.0978 c 0,-10.44444 0.20915,-11.33333 2.66667,-11.33333 2.45752,0 2.66667,0.88889 2.66667,11.33333 0,10.44445 -0.20915,11.33334 -2.66667,11.33334 -2.45752,0 -2.66667,-0.88889 -2.66667,-11.33334 z m 12.11672,0.55275 c -2.2642,-5.92932 -4.11672,-11.07105 -4.11672,-11.42607 0,-0.35502 1.303,-0.45375 2.89556,-0.21942 2.21484,0.32591 3.50132,2.24805 5.47223,8.17607 1.41716,4.2625 2.81801,7.50864 3.11301,7.21365 0.29499,-0.29499 1.6366,-3.78249 2.98135,-7.75 1.83204,-5.40522 3.16693,-7.32046 5.32476,-7.63972 1.58387,-0.23433 2.87976,-0.1356 2.87976,0.21942 0,0.35502 -1.85252,5.49675 -4.11672,11.42607 -3.51828,9.21347 -4.56733,10.78059 -7.21661,10.78059 -2.64928,0 -3.69834,-1.56712 -7.21662,-10.78059 z m 23.39643,8.01714 c -4.76971,-3.75184 -4.99484,-12.71307 -0.42721,-17.00414 5.7662,-5.41706 14.71118,-3.30111 17.33622,4.10092 1.68014,4.73763 -0.33781,6.33333 -8.00925,6.33333 -5.24443,0 -7.1476,0.4696 -6.75452,1.66667 0.75232,2.29114 7.3962,2.89119 9.81208,0.88618 3.36257,-2.79068 5.57816,0.74512 2.55804,4.08231 -3.19199,3.52712 -9.98723,3.49656 -14.51536,-0.0653 z m 10.90264,-12.88791 c -0.55159,-2.86416 -4.54957,-3.78408 -7.13183,-1.64101 -2.7049,2.24488 -1.16389,3.95903 3.55916,3.95903 3.09988,0 3.91698,-0.53016 3.57267,-2.31802 z m 10.47311,14.76246 c -0.4889,-0.48888 -0.8889,-5.58888 -0.8889,-11.33333 0,-9.55555 0.22695,-10.44444 2.66667,-10.44444 1.59247,0 2.66667,0.88889 2.66667,2.20665 0,2.05331 0.16944,2.05331 2.43832,0 3.2524,-2.94339 5.56168,-2.78969 5.56168,0.37016 0,1.50597 -1.24672,2.96589 -3,3.51304 -4.15388,1.29633 -4.95606,2.94647 -4.97959,10.24348 -0.0193,5.98803 -1.77741,8.13188 -4.46485,5.44444 z m 16.74112,-1.18671 c -1.62984,-1.14159 -2.96335,-2.94159 -2.96335,-4 0,-2.54136 3.65661,-2.45826 6.25708,0.1422 2.32775,2.32775 5.90587,2.11591 6.74331,-0.39923 0.30509,-0.91628 -0.5452,-2.02252 -1.88951,-2.45831 -10.36844,-3.36117 -12.47651,-5.99933 -8.88789,-11.1228 3.4239,-4.8883 16.44368,-2.76978 16.44368,2.67565 0,1.66415 -4.96131,1.5854 -6,-0.0952 -1.24959,-2.02186 -6,-1.59421 -6,0.54015 0,1.03391 2.5394,2.67705 5.66666,3.66666 4.78011,1.51265 5.73671,2.40871 6.11439,5.72744 0.29785,2.61743 -0.34528,4.5141 -1.92151,5.66667 -3.21842,2.35337 -9.95641,2.18288 -13.56286,-0.34319 z m 19.70332,-9.25773 c 0,-10.44444 0.20914,-11.33333 2.66666,-11.33333 2.45752,0 2.66667,0.88889 2.66667,11.33333 0,10.44445 -0.20915,11.33334 -2.66667,11.33334 -2.45752,0 -2.66666,-0.88889 -2.66666,-11.33334 z m 13.38023,8.75433 c -0.75913,-1.41846 -1.38024,-5.0266 -1.38024,-8.0181 0,-2.99149 -0.75,-6.70933 -1.66666,-8.26186 -1.33334,-2.25822 -1.33334,-2.94349 0,-3.42635 0.91666,-0.33196 1.66666,-1.75357 1.66666,-3.15913 0,-1.66666 0.92754,-2.55555 2.66667,-2.55555 1.77777,0 2.66667,0.88889 2.66667,2.66666 0,1.95556 0.88889,2.66667 3.33333,2.66667 4.40683,0 4.35044,3.45563 -0.0745,4.56623 -3.0722,0.77107 -3.36768,1.40909 -3,6.47787 0.33842,4.66567 0.9184,5.69508 3.40784,6.04864 1.92794,0.27381 3,1.34586 3,3 0,3.67346 -8.65327,3.66932 -10.61976,-0.005 z m 15.98702,-0.0538 c -3.64335,-3.64334 -4.64283,-8.67827 -2.66876,-13.44408 4.36432,-10.5364 19.96817,-8.752 19.96817,2.28349 v 4.46001 h -7.33333 c -7.5098,0 -9.3267,1.50603 -4.76326,3.94831 2.70755,1.44904 6.76326,0.59494 6.76326,-1.42429 0,-1.5974 3.63684,-1.52366 4.63661,0.094 0.43669,0.70658 -0.42789,2.50658 -1.92132,4 -3.56732,3.56732 -11.15395,3.60997 -14.68137,0.0825 z m 11.71225,-13.03391 c -0.30777,-1.59815 -1.69817,-2.33333 -4.41284,-2.33333 -2.71467,0 -4.10507,0.73518 -4.41284,2.33333 -0.36163,1.8778 0.49988,2.33333 4.41284,2.33333 3.91296,0 4.77447,-0.45553 4.41284,-2.33333 z M 248.19004,34.584789 c 0,-1.77778 0.8889,-2.66667 2.66667,-2.66667 1.77777,0 2.66667,0.88889 2.66667,2.66667 0,1.77777 -0.8889,2.66666 -2.66667,2.66666 -1.77777,0 -2.66667,-0.88889 -2.66667,-2.66666 z m 93.33334,0 c 0,-1.77778 0.88889,-2.66667 2.66666,-2.66667 1.77778,0 2.66667,0.88889 2.66667,2.66667 0,1.77777 -0.88889,2.66666 -2.66667,2.66666 -1.77777,0 -2.66666,-0.88889 -2.66666,-2.66666 z m 31.99999,1.57885 c 0,-0.59829 2.46744,-2.47459 5.4832,-4.16954 4.47404,-2.51455 5.69127,-2.74505 6.61378,-1.25241 0.80642,1.30483 -0.0967,2.48426 -3.14987,4.11365 -4.58473,2.44673 -8.94711,3.08462 -8.94711,1.3083 z"
       id="path237" />
  </g>
</svg>
